<?xml version="1.0"?>
<svg xmlns="http://www.w3.org/2000/svg" xmlns:xlink="http://www.w3.org/1999/xlink" version="1.1" id="Capa_1" x="0px" y="0px" viewBox="0 0 359.206 359.206" style="enable-background:new 0 0 359.206 359.206;" xml:space="preserve" width="512px" height="512px" class=""><g><path d="M357.01,244l-42.368-42.372c-1.407-1.406-3.315-2.197-5.303-2.197h-0.001  c-1.989,0-3.896,0.79-5.303,2.196l-14.143,14.142c-2.929,2.929-2.929,7.678,0,10.607l5.426,5.427h-55.926  c-28.782,0-52.198-23.416-52.198-52.197c0-28.785,23.416-52.204,52.198-52.204h55.927l-5.427,5.428  c-2.929,2.929-2.928,7.678,0,10.607l14.143,14.142c1.407,1.406,3.314,2.196,5.304,2.196c1.989,0,3.896-0.791,5.303-2.197  l42.368-42.373c2.929-2.929,2.928-7.678,0-10.606l-42.368-42.37c-2.929-2.929-7.678-2.929-10.607,0l-14.143,14.142  c-1.407,1.406-2.197,3.314-2.197,5.303c0,1.989,0.79,3.896,2.197,5.303l5.425,5.425h-55.926c-28.458,0-53.773,13.705-69.698,34.86  c-15.926-21.155-41.241-34.86-69.698-34.86H7.5c-4.142,0-7.5,3.358-7.5,7.5v20c0,4.142,3.358,7.5,7.5,7.5h92.495  c28.782,0,52.198,23.419,52.198,52.204c0,28.781-23.416,52.197-52.198,52.197H7.98c-4.142,0-7.5,3.358-7.5,7.5v20  c0,4.142,3.358,7.5,7.5,7.5h92.015c28.458,0,53.772-13.704,69.698-34.858c15.926,21.154,41.241,34.858,69.698,34.858h55.926  l-5.426,5.426c-1.406,1.407-2.196,3.314-2.196,5.304c0,1.989,0.79,3.896,2.197,5.303l14.143,14.142  c1.407,1.406,3.314,2.196,5.304,2.196c1.989,0,3.896-0.791,5.303-2.197l42.368-42.371C359.938,251.677,359.939,246.929,357.01,244z" data-original="#231F20" class="active-path" data-old_color="#231F20" fill="#FFFFFF"/></g> </svg>
